<svg xmlns="http://www.w3.org/2000/svg" width="19.495" height="20.593" viewBox="0 0 19.495 20.593">
  <path id="iconfinder_iconoteka_cake__birthday_b_s_3507769" d="M16.8,7.4H12.172V4.624H10.323V7.4H5.7A3.7,3.7,0,0,0,2,11.1v8.323H20.495V11.1A3.7,3.7,0,0,0,16.8,7.4ZM18.645,17.57H3.849V14.8a3.5,3.5,0,0,0,2.506-1.2,1.424,1.424,0,0,1,2.386,0,3.227,3.227,0,0,0,5.012,0,1.424,1.424,0,0,1,2.386,0,3.5,3.5,0,0,0,2.506,1.2Zm0-4.624a1.849,1.849,0,0,1-1.193-.647,3.227,3.227,0,0,0-5.012,0,1.424,1.424,0,0,1-2.386,0,3.227,3.227,0,0,0-5.012,0,1.849,1.849,0,0,1-1.193.647V11.1A1.849,1.849,0,0,1,5.7,9.247H16.8A1.849,1.849,0,0,1,18.645,11.1Zm-7.4-9.072a1.433,1.433,0,0,0,1.433-1.433C12.681,1.295,11.247,0,11.247,0S9.814,1.295,9.814,2.441a1.433,1.433,0,0,0,1.433,1.433Z" transform="translate(-1.5 0.674)" fill="#313334" stroke="#fff" stroke-width="1"/>
</svg>
