<svg id="gender" xmlns="http://www.w3.org/2000/svg" width="18.288" height="18.288" viewBox="0 0 18.288 18.288">
  <path id="Path_1161" data-name="Path 1161" d="M4.286,99.59v2.233H2.679a.536.536,0,0,0,0,1.072H4.286v1.643a.536.536,0,1,0,1.072,0v-1.643H6.965a.536.536,0,0,0,0-1.072H5.358V99.592a5.135,5.135,0,0,0,1.058-.24,5.946,5.946,0,0,1-.837-.857,3.751,3.751,0,1,1-.757-7.424,3.8,3.8,0,0,1,3.751,3.751,3.7,3.7,0,0,1-.434,1.714,2.678,2.678,0,0,0,.849.672,4.765,4.765,0,0,0,.657-2.386,4.822,4.822,0,1,0-9.644,0A4.812,4.812,0,0,0,4.286,99.59Z" transform="translate(0 -86.785)" fill="#313334"/>
  <path id="Path_1162" data-name="Path 1162" d="M162.395,0H159.18a.536.536,0,1,0,0,1.072H161.1l-3.286,3.214a4.642,4.642,0,0,0-4.587-.779,5.945,5.945,0,0,1,.837.857,3.751,3.751,0,1,1,.757,7.424,3.8,3.8,0,0,1-3.751-3.751,3.7,3.7,0,0,1,.434-1.714,2.678,2.678,0,0,0-.849-.672A4.765,4.765,0,0,0,150,8.037a4.882,4.882,0,0,0,4.822,4.822,4.827,4.827,0,0,0,4.822-4.822,4.774,4.774,0,0,0-1.071-2.993l3.286-3.214V3.751a.536.536,0,1,0,1.072,0V.536A.538.538,0,0,0,162.395,0Z" transform="translate(-144.642)" fill="#313334"/>
</svg>
