<svg xmlns="http://www.w3.org/2000/svg" width="17.039" height="11.36" viewBox="0 0 17.039 11.36">
  <g id="mail" transform="translate(-15 0)">
    <g id="Group_18" data-name="Group 18" transform="translate(15 0)">
      <path id="Path_608" data-name="Path 608" d="M16.166,85.333H.874A.876.876,0,0,0,0,86.207v9.612a.876.876,0,0,0,.874.874H16.166a.876.876,0,0,0,.874-.874V86.207A.876.876,0,0,0,16.166,85.333Zm-.328.655L9.022,91.1a.914.914,0,0,1-1.005,0L1.2,85.988ZM12.2,91.437l3.714,4.588.012.012H1.116l.012-.012,3.714-4.588a.328.328,0,0,0-.509-.412L.655,95.568V86.4l6.969,5.227a1.564,1.564,0,0,0,1.791,0L16.384,86.4v9.17l-3.677-4.543a.328.328,0,0,0-.509.412Z" transform="translate(0 -85.333)"/>
    </g>
  </g>
</svg>
