<svg id="court" xmlns="http://www.w3.org/2000/svg" width="55.072" height="55.437" viewBox="0 0 55.072 55.437">
  <path id="Path_56" data-name="Path 56" d="M280.864,364.712a.866.866,0,0,1-.612-1.479l.612-.612a.866.866,0,0,1,1.225,1.225l-.612.612A.864.864,0,0,1,280.864,364.712Zm0,0" transform="translate(-249.68 -323.131)" fill="#6a8f76"/>
  <path id="Path_57" data-name="Path 57" d="M286.526,335.924a.852.852,0,0,1-.237-.033.865.865,0,0,1-.6-1.07l.973-3.42a.866.866,0,1,1,1.666.474l-.973,3.42A.867.867,0,0,1,286.526,335.924Zm0,0" transform="translate(-254.729 -294.956)" fill="#6a8f76"/>
  <path id="Path_58" data-name="Path 58" d="M286.522,356.093a.866.866,0,0,1-.236-1.7l3.422-.971a.866.866,0,0,1,.474,1.666l-3.423.971A.821.821,0,0,1,286.522,356.093Zm0,0" transform="translate(-254.727 -315.125)" fill="#6a8f76"/>
  <path id="Path_59" data-name="Path 59" d="M305.954,326.956a.862.862,0,0,1-.612-.254l-2.45-2.449a.866.866,0,0,1,1.225-1.225l2.45,2.449a.866.866,0,0,1-.612,1.479Zm0,0" transform="translate(-269.87 -287.826)" fill="#6a8f76"/>
  <path id="Path_60" data-name="Path 60" d="M399.77,233.125a.862.862,0,0,1-.612-.254l-2.45-2.45a.866.866,0,0,1,1.225-1.225l2.449,2.451a.866.866,0,0,1-.612,1.478Zm0,0" transform="translate(-353.528 -204.153)" fill="#6a8f76"/>
  <path id="Path_61" data-name="Path 61" d="M295.5,180.307a.866.866,0,0,1-.612-1.479l18.48-18.48a.866.866,0,0,1,1.225,1.225l-18.48,18.48A.865.865,0,0,1,295.5,180.307Zm0,0" transform="translate(-262.736 -142.76)" fill="#6a8f76"/>
  <path id="Path_62" data-name="Path 62" d="M318.13,202.938a.866.866,0,0,1-.612-1.479L336,182.98a.866.866,0,0,1,1.225,1.225l-18.48,18.48A.863.863,0,0,1,318.13,202.938Zm0,0" transform="translate(-282.911 -162.941)" fill="#6a8f76"/>
  <path id="Path_63" data-name="Path 63" d="M468.625,160.125a.866.866,0,0,1-.612-1.479.866.866,0,1,0-1.225-1.224.867.867,0,1,1-1.225-1.227,2.6,2.6,0,1,1,3.675,3.676A.863.863,0,0,1,468.625,160.125Zm0,0" transform="translate(-414.928 -138.608)" fill="#6a8f76"/>
  <path id="Path_64" data-name="Path 64" d="M488.8,198.223a.866.866,0,0,1-.612-1.479.865.865,0,0,0,0-1.224.867.867,0,0,1,1.225-1.227,2.6,2.6,0,0,1,0,3.675.865.865,0,0,1-.612.254Zm0,0" transform="translate(-435.103 -173.031)" fill="#6a8f76"/>
  <path id="Path_65" data-name="Path 65" d="M434.585,224.265a.866.866,0,0,1-.612-1.479l5.871-5.871a.866.866,0,1,1,1.225,1.225l-5.871,5.871A.859.859,0,0,1,434.585,224.265Zm0,0" transform="translate(-386.758 -193.202)" fill="#6a8f76"/>
  <path id="Path_66" data-name="Path 66" d="M463.582,170.546a.862.862,0,0,1-.612-.254l-3.062-3.063A.866.866,0,1,1,461.133,166l3.062,3.063a.866.866,0,0,1-.612,1.479Zm0,0" transform="translate(-409.885 -147.804)" fill="#6a8f76"/>
  <path id="Path_67" data-name="Path 67" d="M61.247,52.838H24.866A.865.865,0,0,1,24,51.972V.866A.865.865,0,0,1,24.866,0H56.049a.862.862,0,0,1,.612.254l5.2,5.2a.866.866,0,0,1,.254.612V29.6a.866.866,0,1,1-1.732,0V6.422l-4.69-4.69H25.732V51.106H60.38V34.5a.866.866,0,1,1,1.732,0v17.47a.865.865,0,0,1-.866.866Zm0,0" transform="translate(-21.401)" fill="#6a8f76"/>
  <path id="Path_68" data-name="Path 68" d="M312.866,6.93A.865.865,0,0,1,312,6.063V.866a.866.866,0,1,1,1.732,0v5.2A.865.865,0,0,1,312.866,6.93Zm0,0" transform="translate(-278.218)" fill="#6a8f76"/>
  <path id="Path_69" data-name="Path 69" d="M318.063,49.732h-5.2a.866.866,0,1,1,0-1.732h5.2a.866.866,0,1,1,0,1.732Zm0,0" transform="translate(-278.218 -42.803)" fill="#6a8f76"/>
  <path id="Path_70" data-name="Path 70" d="M111.387,209.787H88.866a.866.866,0,1,1,0-1.732h22.521a.866.866,0,1,1,0,1.732Zm0,0" transform="translate(-78.472 -185.528)" fill="#6a8f76"/>
  <path id="Path_71" data-name="Path 71" d="M111.387,249.779H88.866a.866.866,0,0,1,0-1.732h22.521a.866.866,0,0,1,0,1.732Zm0,0" transform="translate(-78.472 -221.19)" fill="#6a8f76"/>
  <path id="Path_72" data-name="Path 72" d="M111.387,289.771H88.866a.866.866,0,1,1,0-1.732h22.521a.866.866,0,1,1,0,1.732Zm0,0" transform="translate(-78.472 -256.852)" fill="#6a8f76"/>
  <path id="Path_73" data-name="Path 73" d="M100.127,329.763H88.866a.866.866,0,0,1,0-1.732h11.261a.866.866,0,0,1,0,1.732Zm0,0" transform="translate(-78.472 -292.513)" fill="#6a8f76"/>
  <path id="Path_74" data-name="Path 74" d="M246.93,409.755h-6.063a.866.866,0,1,1,0-1.732h6.063a.866.866,0,0,1,0,1.732Zm0,0" transform="translate(-214.014 -363.844)" fill="#6a8f76"/>
  <path id="Path_75" data-name="Path 75" d="M280.866,397.22a.865.865,0,0,1-.866-.866v-3.465a.866.866,0,1,1,1.732,0v3.465A.865.865,0,0,1,280.866,397.22Zm0,0" transform="translate(-249.683 -349.577)" fill="#6a8f76"/>
  <path id="Path_76" data-name="Path 76" d="M259.464,397.226a.863.863,0,0,1-.694-.346l-2.6-3.465a.866.866,0,0,1,1.385-1.039l2.6,3.465a.865.865,0,0,1-.691,1.385Zm0,0" transform="translate(-228.28 -349.583)" fill="#6a8f76"/>
  <path id="Path_77" data-name="Path 77" d="M256.866,397.22a.865.865,0,0,1-.866-.866v-3.465a.866.866,0,0,1,1.732,0v3.465A.865.865,0,0,1,256.866,397.22Zm0,0" transform="translate(-228.282 -349.577)" fill="#6a8f76"/>
  <path id="Path_78" data-name="Path 78" d="M336.866,476.331a.865.865,0,0,1-.866-.866v-2.6a.866.866,0,1,1,1.732,0v2.6A.865.865,0,0,1,336.866,476.331Zm0,0" transform="translate(-299.62 -420.894)" fill="#6a8f76"/>
  <path id="Path_79" data-name="Path 79" d="M37.247,497.732H.866a.866.866,0,1,1,0-1.732h36.38a.866.866,0,1,1,0,1.732Zm0,0" transform="translate(0 -442.296)" fill="#6a8f76"/>
  <path id="Path_80" data-name="Path 80" d="M.866,76.838A.865.865,0,0,1,0,75.972V24.866a.866.866,0,0,1,1.732,0V75.972A.865.865,0,0,1,.866,76.838Zm0,0" transform="translate(0 -21.401)" fill="#6a8f76"/>
  <path id="Path_81" data-name="Path 81" d="M3.465,25.732H.866A.866.866,0,1,1,.866,24h2.6a.866.866,0,1,1,0,1.732Zm0,0" transform="translate(0 -21.401)" fill="#6a8f76"/>
  <path id="Path_82" data-name="Path 82" d="M94.954,96.782a7.925,7.925,0,0,1-6.8-3.881.871.871,0,0,1,0-.9,7.9,7.9,0,0,1,13.607,0,.864.864,0,0,1,0,.9A7.925,7.925,0,0,1,94.954,96.782Zm-5.025-4.331a6.158,6.158,0,0,0,10.051,0,6.158,6.158,0,0,0-10.051,0Zm0,0" transform="translate(-78.494 -78.579)" fill="#6a8f76"/>
  <path id="Path_83" data-name="Path 83" d="M130.6,109.174a2.6,2.6,0,1,1,2.6-2.6A2.6,2.6,0,0,1,130.6,109.174Zm0-3.465a.866.866,0,1,0,.866.866A.867.867,0,0,0,130.6,105.709Zm0,0" transform="translate(-114.141 -92.719)" fill="#6a8f76"/>
</svg>
