<svg id="phone-call" xmlns="http://www.w3.org/2000/svg" width="14.701" height="14.579" viewBox="0 0 14.701 14.579">
  <g id="Group_21" data-name="Group 21" transform="translate(0 0)">
    <path id="Path_610" data-name="Path 610" d="M115.019,113.058l-2.319-2.31a1.349,1.349,0,0,0-1.908,0l0,0-1.328,1.328a.293.293,0,0,1-.375.033,15.312,15.312,0,0,1-3.577-3.511.289.289,0,0,1,.029-.375l1.361-1.361a1.349,1.349,0,0,0,0-1.906l-2.319-2.319a1.382,1.382,0,0,0-1.91,0l-.734.734a4.126,4.126,0,0,0-1.023,4.208,12.376,12.376,0,0,0,1.51,3.061,16.047,16.047,0,0,0,4.633,4.551,11.81,11.81,0,0,0,3.432,1.526,3.974,3.974,0,0,0,.957.116,4.175,4.175,0,0,0,2.942-1.238l.631-.631A1.349,1.349,0,0,0,115.019,113.058Zm-.584,1.343,0,0,0-.012-.631.631a3.3,3.3,0,0,1-3.115.891,10.967,10.967,0,0,1-3.185-1.427,15.253,15.253,0,0,1-4.39-4.3,11.55,11.55,0,0,1-1.411-2.855,3.3,3.3,0,0,1,.825-3.371l.734-.734a.524.524,0,0,1,.741,0l0,0,2.319,2.319a.524.524,0,0,1,0,.741l0,0-1.361,1.361a1.11,1.11,0,0,0-.116,1.444,16.252,16.252,0,0,0,3.775,3.7,1.118,1.118,0,0,0,1.427-.124l1.316-1.337a.524.524,0,0,1,.741,0l0,0,2.323,2.327A.524.524,0,0,1,114.435,114.4Z" transform="translate(-100.712 -102.253)"/>
  </g>
</svg>
