<svg id="pin" xmlns="http://www.w3.org/2000/svg" width="11.837" height="16.022" viewBox="0 0 11.837 16.022">
  <g id="Group_24" data-name="Group 24" transform="translate(0)">
    <g id="Group_23" data-name="Group 23" transform="translate(0)">
      <path id="Path_611" data-name="Path 611" d="M54,0A5.925,5.925,0,0,0,48.08,5.918a6.828,6.828,0,0,0,.5,2.279,9.544,9.544,0,0,0,.684,1.279l4.058,6.149a.772.772,0,0,0,1.349,0l4.058-6.149A9.505,9.505,0,0,0,59.415,8.2a6.827,6.827,0,0,0,.5-2.279A5.925,5.925,0,0,0,54,0Zm4.775,7.927a8.746,8.746,0,0,1-.624,1.166l-4.058,6.149c-.08.122-.105.122-.186,0L49.848,9.093a8.749,8.749,0,0,1-.624-1.167,6.2,6.2,0,0,1-.448-2.008,5.222,5.222,0,1,1,10.444,0A6.2,6.2,0,0,1,58.773,7.927Z" transform="translate(-48.08)"/>
      <path id="Path_612" data-name="Path 612" d="M115.213,64.008a3.133,3.133,0,1,0,3.133,3.133A3.137,3.137,0,0,0,115.213,64.008Zm0,5.57a2.437,2.437,0,1,1,2.437-2.437A2.44,2.44,0,0,1,115.213,69.578Z" transform="translate(-109.295 -61.222)"/>
    </g>
  </g>
</svg>
