<svg xmlns="http://www.w3.org/2000/svg" width="60.097" height="81" viewBox="0 0 60.097 81">
  <g id="Layer_20" data-name="Layer 20" transform="translate(-9 -1)">
    <path id="Path_648" data-name="Path 648" d="M67.79,23.21H58.645V16.677a1.306,1.306,0,0,0-1.306-1.306H55.192a16.592,16.592,0,0,0-1.033-2.5l1.518-1.517a1.306,1.306,0,0,0,0-1.847L50.134,3.968a1.306,1.306,0,0,0-1.847,0L46.77,5.485a16.854,16.854,0,0,0-2.5-1.032V2.306A1.306,1.306,0,0,0,42.968,1H35.129a1.306,1.306,0,0,0-1.306,1.306V4.453a16.853,16.853,0,0,0-2.5,1.032L29.81,3.968a1.306,1.306,0,0,0-1.847,0L22.42,9.512a1.306,1.306,0,0,0,0,1.847l1.518,1.517a16.592,16.592,0,0,0-1.033,2.5H20.758a1.306,1.306,0,0,0-1.306,1.306V23.21H10.306A1.306,1.306,0,0,0,9,24.516v7.839a1.306,1.306,0,0,0,1.306,1.306h2.613v3.919a1.306,1.306,0,0,0,.754,1.184l18.843,8.794V58.484a1.306,1.306,0,0,0,1.89,1.176l10.452-5.226a1.306,1.306,0,0,0,.722-1.176v-5.7l18.843-8.794a1.306,1.306,0,0,0,.754-1.184V33.661H67.79A1.306,1.306,0,0,0,69.1,32.355V24.516A1.306,1.306,0,0,0,67.79,23.21ZM22.065,17.984h1.821A1.306,1.306,0,0,0,25.15,17a14.291,14.291,0,0,1,1.529-3.695,1.306,1.306,0,0,0-.2-1.587l-1.286-1.287,3.695-3.7,1.287,1.287a1.306,1.306,0,0,0,1.589.2A14.264,14.264,0,0,1,35.456,6.7a1.306,1.306,0,0,0,.98-1.265V3.613h5.226V5.434a1.306,1.306,0,0,0,.98,1.265,14.264,14.264,0,0,1,3.693,1.529,1.306,1.306,0,0,0,1.589-.2L49.21,6.739l3.695,3.7-1.286,1.287a1.306,1.306,0,0,0-.2,1.587A14.291,14.291,0,0,1,52.946,17a1.306,1.306,0,0,0,1.265.98h1.821V23.21H50.5a11.758,11.758,0,1,0-22.91,0H22.065Zm8.218,5.226a9.145,9.145,0,1,1,17.533,0ZM62.565,36.748,43.722,45.542a1.306,1.306,0,0,0-.754,1.184v5.725L35.129,56.37V46.726a1.306,1.306,0,0,0-.754-1.184L15.532,36.748V33.661H62.565Zm3.919-5.7H11.613V25.823H66.484Z" transform="translate(0 0)" fill="#6a8f76"/>
    <path id="Path_649" data-name="Path 649" d="M34.452,47A10.452,10.452,0,1,0,44.9,57.452,10.452,10.452,0,0,0,34.452,47ZM26.613,57.452a7.847,7.847,0,0,1,6.532-7.721V51.16a3.91,3.91,0,0,0,1.306,7.6,1.306,1.306,0,1,1-1.306,1.306H30.532a3.919,3.919,0,0,0,2.613,3.679v1.429A7.847,7.847,0,0,1,26.613,57.452Zm9.145,7.721V63.743a3.91,3.91,0,0,0-1.306-7.6,1.306,1.306,0,1,1,1.306-1.306h2.613a3.919,3.919,0,0,0-2.613-3.679V49.73a7.83,7.83,0,0,1,0,15.442Z" transform="translate(4.597 14.097)" fill="#6a8f76"/>
  </g>
</svg>
