<svg id="conversion" xmlns="http://www.w3.org/2000/svg" width="78.453" height="78.453" viewBox="0 0 78.453 78.453">
  <path id="Path_642" data-name="Path 642" d="M23.237,18.12A5.2,5.2,0,0,1,23.466,17a6.661,6.661,0,0,0,.857-1.625A5.305,5.305,0,0,1,28.5,13.331h4.29a5.255,5.255,0,0,1,2.058.415,1.149,1.149,0,1,0,.9-2.117q-.229-.1-.463-.178a6.665,6.665,0,1,0-9.267,0,7.635,7.635,0,0,0-1.376.638,6.665,6.665,0,1,0-11.221,5.813,7.551,7.551,0,0,0-.882.37A6.663,6.663,0,0,0,5.1,29.108,7.6,7.6,0,0,0,0,36.273v5.21A4.832,4.832,0,0,0,4.827,46.31H7.919a1.149,1.149,0,0,0,0-2.3H4.827A2.531,2.531,0,0,1,2.3,41.483v-5.21a5.292,5.292,0,0,1,5.286-5.286h4.29a5.292,5.292,0,0,1,5.286,5.286v5.21a2.531,2.531,0,0,1-2.528,2.528H12.88a1.149,1.149,0,0,0,0,2.3h1.754a4.832,4.832,0,0,0,4.827-4.827v-5.21a7.615,7.615,0,0,0-.089-1.166h3.585a4.832,4.832,0,0,0,4.827-4.827V28.654h7.767a4.832,4.832,0,0,0,4.827-4.827v-5.21A7.543,7.543,0,0,0,39.8,15.7a1.149,1.149,0,0,0-2.122.883,5.255,5.255,0,0,1,.4,2.031v5.21a2.531,2.531,0,0,1-2.528,2.528H27.782V25.071a8.282,8.282,0,0,0-4.545-6.951ZM30.646,2.3a4.367,4.367,0,1,1-4.367,4.367A4.372,4.372,0,0,1,30.646,2.3ZM18.051,8.752a4.368,4.368,0,0,1,4.2,5.565A7.471,7.471,0,0,0,21.42,15.9a4.366,4.366,0,1,1-3.368-7.143ZM9.73,19.955a4.367,4.367,0,1,1-4.367,4.367A4.372,4.372,0,0,1,9.73,19.955ZM25.483,30.281a2.531,2.531,0,0,1-2.528,2.528H18.621a7.627,7.627,0,0,0-4.258-3.7,6.654,6.654,0,0,0,.364-9.191,5.3,5.3,0,0,1,1.178-.132H20.2a5.282,5.282,0,0,1,5.286,5.286Z" fill="#6a8f76"/>
  <path id="Path_643" data-name="Path 643" d="M281.625,265a16.625,16.625,0,1,0,16.625,16.625A16.644,16.644,0,0,0,281.625,265Zm0,30.952a14.327,14.327,0,1,1,14.327-14.327A14.343,14.343,0,0,1,281.625,295.952Z" transform="translate(-224.395 -224.395)" fill="#6a8f76"/>
  <path id="Path_644" data-name="Path 644" d="M273.418,243.783a1.149,1.149,0,1,0-1.861,1.349,18.932,18.932,0,1,1-3.143-3.383,1.149,1.149,0,0,0,1.482-1.757,21.207,21.207,0,1,0,3.523,3.792Z" transform="translate(-198.991 -198.991)" fill="#6a8f76"/>
  <path id="Path_645" data-name="Path 645" d="M352.676,309.813v-1.607a1.149,1.149,0,1,0-2.3,0v1.607a3.76,3.76,0,0,0-3.161,3.707v1.113a3.758,3.758,0,0,0,3.754,3.754h2.148a.421.421,0,0,1,.421.421v2.148a1.457,1.457,0,0,1-1.456,1.456H350.97a1.457,1.457,0,0,1-1.456-1.456V320.4a1.149,1.149,0,1,0-2.3,0v.557a3.76,3.76,0,0,0,3.161,3.707v1.607a1.149,1.149,0,0,0,2.3,0v-1.607a3.76,3.76,0,0,0,3.161-3.707v-2.148a2.722,2.722,0,0,0-2.719-2.719H350.97a1.457,1.457,0,0,1-1.456-1.456V313.52a1.457,1.457,0,0,1,1.456-1.456h1.113a1.457,1.457,0,0,1,1.456,1.456v.556a1.149,1.149,0,1,0,2.3,0v-.556A3.76,3.76,0,0,0,352.676,309.813Z" transform="translate(-294.013 -260.007)" fill="#6a8f76"/>
  <path id="Path_646" data-name="Path 646" d="M324.544,74.617a12.73,12.73,0,0,1,12.588,10.941l-.882-.651a1.149,1.149,0,1,0-1.366,1.849l2.837,2.1a1.149,1.149,0,0,0,1.617-.256l2.173-3.036a1.149,1.149,0,1,0-1.869-1.338l-.324.452a15.034,15.034,0,0,0-14.774-12.356,1.149,1.149,0,0,0,0,2.3Z" transform="translate(-273.842 -61.237)" fill="#6a8f76"/>
  <path id="Path_647" data-name="Path 647" d="M77.563,348.532a1.149,1.149,0,0,0-1.849,1.366l.651.882a12.73,12.73,0,0,1-10.941-12.587,1.149,1.149,0,1,0-2.3,0,15.033,15.033,0,0,0,12.355,14.774l-.452.324a1.149,1.149,0,1,0,1.338,1.869l3.036-2.173a1.15,1.15,0,0,0,.256-1.617Z" transform="translate(-53.453 -285.399)" fill="#6a8f76"/>
</svg>
