<svg xmlns="http://www.w3.org/2000/svg" width="57.201" height="38.134" viewBox="0 0 57.201 38.134">
  <g id="mail" transform="translate(0 -85.333)">
    <g id="Group_522" data-name="Group 522" transform="translate(0 85.333)">
      <path id="Path_623" data-name="Path 623" d="M54.268,85.333H2.933A2.942,2.942,0,0,0,0,88.266v32.267a2.942,2.942,0,0,0,2.933,2.933H54.268a2.942,2.942,0,0,0,2.933-2.933V88.266A2.942,2.942,0,0,0,54.268,85.333Zm-1.1,2.2L30.288,104.694a3.067,3.067,0,0,1-3.375,0L4.034,87.533ZM40.946,105.826l12.467,15.4c.013.015.028.027.041.041H3.747c.013-.015.029-.026.041-.041l12.467-15.4a1.1,1.1,0,0,0-1.71-1.385L2.2,119.691V88.908l23.394,17.545a5.251,5.251,0,0,0,6.013,0L55,88.908v30.783l-12.345-15.25a1.1,1.1,0,0,0-1.71,1.385Z" transform="translate(0 -85.333)" fill="#6a8f76"/>
    </g>
  </g>
</svg>
