<svg xmlns="http://www.w3.org/2000/svg" width="63.728" height="62.839" viewBox="0 0 63.728 62.839">
  <g id="search" transform="translate(0 -2.749)">
    <path id="Path_624" data-name="Path 624" d="M162.115,65.249a12.6,12.6,0,1,0,17.819,0A12.615,12.615,0,0,0,162.115,65.249Zm18.377,14.483V68.585A11.027,11.027,0,0,1,180.492,79.731ZM178.876,66.48V81.837c-.029.029-.055.06-.084.089a10.981,10.981,0,0,1-17.163-2.078h.931a.808.808,0,1,0,0-1.615h-1.736a11.039,11.039,0,0,1-.739-4.995h6.352a.808.808,0,1,0,0-1.615h-6.1a10.912,10.912,0,0,1,2.691-4.995h10.352a.808.808,0,1,0,0-1.615H164.94a11,11,0,0,1,13.851,1.379C178.821,66.42,178.848,66.45,178.876,66.48Z" transform="translate(-132.837 -49.314)" fill="#6a8f76"/>
    <path id="Path_625" data-name="Path 625" d="M62.876,45.421l-11.7-11.7a15.719,15.719,0,0,0-5.942-22.93V3.557a.808.808,0,0,0-.808-.808H9a.808.808,0,0,0-.571.236L.237,11.172A.808.808,0,0,0,0,11.744V64.781a.808.808,0,0,0,.808.808H44.424a.808.808,0,0,0,.808-.808V38.9a15.579,15.579,0,0,0,1.826-1.074L58.764,49.533a2.908,2.908,0,1,0,4.112-4.112ZM52.3,24.844a14.1,14.1,0,1,1-4.133-9.977A14.017,14.017,0,0,1,52.3,24.844ZM8.189,5.506v5.43H2.758ZM43.616,63.973h-42V12.551H9a.808.808,0,0,0,.808-.808V4.364H43.616v5.726a15.748,15.748,0,0,0-19.072,6.923H16.962a.808.808,0,0,0,0,1.615h6.772a15.556,15.556,0,0,0-1.005,3.312H7.835a.808.808,0,1,0,0,1.615H22.514q-.052.64-.053,1.289a15.966,15.966,0,0,0,.129,2.023H15.023a.808.808,0,1,0,0,1.615h7.86a15.529,15.529,0,0,0,1.19,3.312H7.835a.808.808,0,0,0,0,1.615H24.994a15.88,15.88,0,0,0,2.074,2.555c.265.265.54.515.819.757H25.12a.808.808,0,1,0,0,1.615h4.99A15.765,15.765,0,0,0,43.616,39.6Zm5.691-28.009q.46-.46.877-.951L58.466,43.3l-1.828,1.828-8.286-8.286C48.679,36.56,49,36.272,49.307,35.964ZM61.733,48.39a1.294,1.294,0,0,1-1.828,0l-2.125-2.125,1.828-1.828,2.125,2.125a1.292,1.292,0,0,1,0,1.828Z" fill="#6a8f76"/>
    <path id="Path_626" data-name="Path 626" d="M44.308,92.664H50.77a.808.808,0,0,0,0-1.615H44.308a.808.808,0,1,0,0,1.615Z" transform="translate(-36.473 -74.036)" fill="#6a8f76"/>
    <path id="Path_627" data-name="Path 627" d="M44.308,153.664H48.75a.808.808,0,1,0,0-1.615H44.308a.808.808,0,1,0,0,1.615Z" transform="translate(-36.473 -125.182)" fill="#6a8f76"/>
    <path id="Path_628" data-name="Path 628" d="M44.308,214.664h14.91a.808.808,0,0,0,0-1.615H44.308a.808.808,0,1,0,0,1.615Z" transform="translate(-36.473 -176.328)" fill="#6a8f76"/>
    <path id="Path_629" data-name="Path 629" d="M105.732,243.549H82.309a.808.808,0,1,0,0,1.615h23.423a.808.808,0,0,0,0-1.615Z" transform="translate(-68.335 -201.901)" fill="#6a8f76"/>
    <path id="Path_630" data-name="Path 630" d="M44.308,245.164h3.554a.808.808,0,1,0,0-1.615H44.308a.808.808,0,1,0,0,1.615Z" transform="translate(-36.473 -201.901)" fill="#6a8f76"/>
    <path id="Path_631" data-name="Path 631" d="M148.074,304.549H132.809a.808.808,0,1,0,0,1.615h15.265a.808.808,0,1,0,0-1.615Z" transform="translate(-110.677 -253.047)" fill="#6a8f76"/>
    <path id="Path_632" data-name="Path 632" d="M44.308,306.164h11.76a.808.808,0,1,0,0-1.615H44.308a.808.808,0,1,0,0,1.615Z" transform="translate(-36.473 -253.047)" fill="#6a8f76"/>
    <path id="Path_633" data-name="Path 633" d="M182.45,335.049h-8.642a.808.808,0,1,0,0,1.615h8.642a.808.808,0,1,0,0-1.615Z" transform="translate(-145.053 -278.62)" fill="#6a8f76"/>
    <path id="Path_634" data-name="Path 634" d="M83.867,335.049H69.409a.808.808,0,1,0,0,1.615H83.867a.808.808,0,1,0,0-1.615Z" transform="translate(-57.519 -278.62)" fill="#6a8f76"/>
    <path id="Path_635" data-name="Path 635" d="M45.923,335.049H44.308a.808.808,0,1,0,0,1.615h1.616a.808.808,0,1,0,0-1.615Z" transform="translate(-36.473 -278.62)" fill="#6a8f76"/>
    <path id="Path_636" data-name="Path 636" d="M201.736,274.049h-4.927a.808.808,0,1,0,0,1.615h4.927a.808.808,0,1,0,0-1.615Z" transform="translate(-164.339 -227.474)" fill="#6a8f76"/>
    <path id="Path_637" data-name="Path 637" d="M44.308,275.664H66.116a.808.808,0,1,0,0-1.615H44.308a.808.808,0,0,0,0,1.615Z" transform="translate(-36.473 -227.474)" fill="#6a8f76"/>
    <path id="Path_638" data-name="Path 638" d="M232.135,123.829h-2.827a.808.808,0,1,0,0,1.615h2.827a.808.808,0,1,0,0-1.615Z" transform="translate(-191.588 -101.521)" fill="#6a8f76"/>
    <path id="Path_639" data-name="Path 639" d="M208.239,164.749h-7.431a.808.808,0,1,0,0,1.615h7.431a.808.808,0,1,0,0-1.615Z" transform="translate(-167.692 -135.83)" fill="#6a8f76"/>
  </g>
</svg>
