<svg xmlns="http://www.w3.org/2000/svg" width="70.58" height="69.988" viewBox="0 0 70.58 69.988">
  <g id="phone-call" transform="translate(-15.168 -15.422)">
    <g id="Group_526" data-name="Group 526" transform="translate(15.682 15.922)">
      <g id="Group_525" data-name="Group 525">
        <path id="Path_641" data-name="Path 641" d="M168.413,153.379l-10.971-10.932a6.384,6.384,0,0,0-9.028-.011l-.011.011-6.286,6.286a1.386,1.386,0,0,1-1.776.156,72.454,72.454,0,0,1-16.926-16.613,1.366,1.366,0,0,1,.137-1.776l6.442-6.442a6.384,6.384,0,0,0,0-9.019l-10.971-10.971a6.54,6.54,0,0,0-9.039,0l-3.475,3.475a19.522,19.522,0,0,0-4.842,19.912,58.563,58.563,0,0,0,7.145,14.485,75.935,75.935,0,0,0,21.923,21.533,55.886,55.886,0,0,0,16.242,7.223,18.805,18.805,0,0,0,4.529.547,19.756,19.756,0,0,0,13.919-5.857l2.987-2.987A6.383,6.383,0,0,0,168.413,153.379Zm-2.764,6.356-.008.008.019-.059-2.987,2.987a15.618,15.618,0,0,1-14.739,4.217,51.894,51.894,0,0,1-15.071-6.755,72.177,72.177,0,0,1-20.771-20.361,54.654,54.654,0,0,1-6.677-13.509,15.617,15.617,0,0,1,3.9-15.949l3.475-3.475a2.479,2.479,0,0,1,3.506-.008l.008.008L127.28,117.81a2.479,2.479,0,0,1,.008,3.506l-.008.008-6.442,6.442a5.251,5.251,0,0,0-.547,6.833,76.9,76.9,0,0,0,17.863,17.531,5.29,5.29,0,0,0,6.755-.586l6.227-6.325a2.479,2.479,0,0,1,3.506-.008l.008.008,10.991,11.01A2.479,2.479,0,0,1,165.648,159.735Z" transform="translate(-100.712 -102.253)" fill="#6a8f76" stroke="#fff" stroke-width="1"/>
      </g>
    </g>
  </g>
</svg>
