<svg xmlns="http://www.w3.org/2000/svg" width="15.285" height="17.076" viewBox="0 0 15.285 17.076">
  <g id="user" transform="translate(-12.146 -14.862)">
    <g id="Group_503" data-name="Group 503" transform="translate(15.356 14.862)">
      <g id="Group_502" data-name="Group 502" transform="translate(0)">
        <path id="Path_18" data-name="Path 18" d="M115.225,0a4.434,4.434,0,1,0,4.434,4.434A4.445,4.445,0,0,0,115.225,0Z" transform="translate(-110.791)" fill="#fff"/>
      </g>
    </g>
    <g id="Group_505" data-name="Group 505" transform="translate(12.146 24.046)">
      <g id="Group_504" data-name="Group 504" transform="translate(0 0)">
        <path id="Path_19" data-name="Path 19" d="M39.417,251.066a4.134,4.134,0,0,0-.445-.813,5.511,5.511,0,0,0-3.814-2.4.816.816,0,0,0-.561.136,4.726,4.726,0,0,1-5.576,0,.726.726,0,0,0-.561-.136,5.471,5.471,0,0,0-3.814,2.4,4.766,4.766,0,0,0-.445.813.412.412,0,0,0,.019.368,7.724,7.724,0,0,0,.523.774,7.36,7.36,0,0,0,.891,1.007,11.61,11.61,0,0,0,.891.774,8.829,8.829,0,0,0,10.532,0,8.512,8.512,0,0,0,.891-.774,8.942,8.942,0,0,0,.891-1.007,6.787,6.787,0,0,0,.523-.774A.33.33,0,0,0,39.417,251.066Z" transform="translate(-24.165 -247.841)" fill="#fff"/>
      </g>
    </g>
  </g>
</svg>
